<svg width="60" height="61" viewBox="0 0 60 61" fill="none" xmlns="http://www.w3.org/2000/svg">
<circle cx="30" cy="30.8223" r="30" fill="#FAE2CB"/>
<g clip-path="url(#clip0_1050_260)">
<path d="M30.5987 14.3223C30.8892 14.3848 31.1844 14.4331 31.4702 14.5118C33.5565 15.0854 34.9059 16.4099 35.6768 18.3744C33.1634 18.8482 31.2963 20.1604 29.9983 22.299C28.7036 20.1611 26.8372 18.8469 24.3311 18.3744C24.8881 16.8501 25.853 15.6809 27.3296 14.9778C27.9746 14.671 28.7069 14.5356 29.3992 14.3223C29.799 14.3223 30.1989 14.3223 30.5987 14.3223Z" fill="#60340B"/>
<path d="M23.7342 47.3221C23.5816 47.2209 23.4091 47.1384 23.2805 47.014C22.9073 46.6524 22.8966 46.0962 23.2691 45.7062C23.6603 45.297 24.0694 44.9019 24.4945 44.5261C24.5732 44.4565 24.7804 44.4668 24.9023 44.5093C26.1924 44.9573 27.5177 45.2344 28.885 45.3408C31.008 45.5058 33.0643 45.2158 35.0587 44.5126C35.3239 44.4191 35.4778 44.4578 35.6557 44.6492C35.9149 44.9283 36.2008 45.1835 36.4753 45.4491C37.2463 46.1935 37.1783 46.7936 36.2621 47.3227H23.7342V47.3221Z" fill="#60340B"/>
<path d="M42.2607 14.3223C42.324 14.3603 42.3853 14.4009 42.4506 14.4357C43.0283 14.7431 43.1969 15.4418 42.7458 15.9097C41.8395 16.8508 40.8973 17.7596 39.9631 18.6748C39.9112 18.7257 39.7865 18.7438 39.7059 18.7276C39.1222 18.6103 38.5405 18.4827 37.9601 18.3512C37.8735 18.3312 37.7955 18.2745 37.7129 18.2346C37.7569 18.1546 37.7842 18.0599 37.8468 17.998C38.9769 16.8785 40.1091 15.7602 41.2492 14.649C41.3844 14.5169 41.567 14.4299 41.7276 14.3223H42.2607V14.3223Z" fill="#60340B"/>
<path d="M17.4004 33.7334H33.1634C33.7397 34.9806 34.7106 35.7108 36.1646 35.6419C37.4553 35.5806 38.3142 34.8723 38.8186 33.7347H42.5807C41.7758 37.8126 37.5605 43.1339 30.5773 43.4368C23.552 43.7417 18.4999 38.7169 17.4004 33.7334Z" fill="#60340B"/>
<path d="M42.9634 25.9884C42.2697 25.9884 41.5734 25.982 40.8778 25.991C40.402 25.9968 39.9176 25.9762 39.4518 26.0523C38.0318 26.283 37.0143 27.4573 36.9997 28.856C36.9857 30.1444 37.003 31.4328 36.993 32.7206C36.987 33.4811 36.2294 33.9465 35.5544 33.6152C35.1712 33.427 34.9966 33.1105 34.9966 32.6987C34.9966 31.4857 34.998 30.2726 34.9966 29.059C34.9946 27.2169 33.7273 25.9917 31.8242 25.9891C31.5603 25.9891 31.2964 25.9891 30.9893 25.9891C31.0692 23.9227 31.9188 22.2766 33.6873 21.1667C35.7729 19.8583 37.9532 19.8293 40.1028 21.0359C42.1158 22.1657 43.052 24.3191 42.9627 25.9891L42.9634 25.9884Z" fill="#60340B"/>
<path d="M32.998 31.7887H32.5782C27.1361 31.7887 21.6935 31.7887 16.2515 31.7887C15.3599 31.7887 15.0034 31.4438 15.0054 30.5782C15.0061 30.2457 14.9821 29.9079 15.0301 29.5811C15.1753 28.5892 16.0069 27.9241 17.0797 27.9228C20.2675 27.9195 23.4546 27.9215 26.6424 27.9215C28.3749 27.9215 30.1074 27.9215 31.8405 27.9215C32.6021 27.9215 32.996 28.2972 32.9973 29.0243C32.9993 29.9343 32.9973 30.8451 32.9973 31.788L32.998 31.7887Z" fill="#60340B"/>
<path d="M29.0164 25.9754H17.001C17.0536 24.0863 17.7959 22.5253 19.3538 21.3993C21.3449 19.96 23.5265 19.7551 25.7414 20.845C27.861 21.8878 28.8852 23.6583 29.0164 25.9754Z" fill="#60340B"/>
<path d="M38.9982 31.7866C38.9982 30.7689 38.9835 29.7925 39.0042 28.8173C39.0149 28.3223 39.4473 27.933 39.9677 27.9272C41.0112 27.9149 42.056 27.9059 43.0995 27.9311C44.1024 27.9549 44.9293 28.7561 44.9853 29.7248C45.0073 30.0999 45.0026 30.477 44.9886 30.8521C44.9693 31.3561 44.5768 31.7763 44.0637 31.7808C42.3886 31.797 40.7134 31.7873 38.9982 31.7873V31.7866Z" fill="#60340B"/>
</g>
<defs>
<clipPath id="clip0_1050_260">
<rect width="30" height="33" fill="white" transform="translate(15 14.3223)"/>
</clipPath>
</defs>
</svg>
