<svg width="60" height="61" viewBox="0 0 60 61" fill="none" xmlns="http://www.w3.org/2000/svg">
<circle cx="30" cy="30.8223" r="30" fill="#FAE2CB"/>
<g clip-path="url(#clip0_1050_276)">
<path d="M16.5 31.8789H18.5549L19.6967 26.1993H17.6416L16.5 31.8789ZM17.7548 25.5218H19.8183L20.1574 23.8225H18.0947L17.7548 25.5218ZM19.3541 33.4772H21.4092L22.6648 27.3408H24.206L24.4333 26.1993H22.9216L22.9789 25.9424C23.0644 25.4584 23.2357 24.9149 24.0062 24.9149C24.4634 24.9149 24.8912 24.9434 25.3191 25.1432L25.5477 23.9446C25.0709 23.7763 24.5691 23.6894 24.0635 23.6875C22.408 23.6875 21.2667 24.658 20.8383 26.1993H20.1248L19.8965 27.3408H20.61L19.3541 33.4772Z" fill="#60340B"/>
<path d="M25.8617 31.9931C28.2877 31.9931 29.9717 29.7952 29.9717 27.9971C29.9717 26.6558 28.7443 26.0848 27.5457 26.0848C24.8906 26.0848 23.4357 28.4551 23.4357 30.0808C23.4357 31.4222 24.6916 31.9931 25.8617 31.9931ZM32.3697 31.9931C34.7956 31.9931 36.4796 29.7952 36.4796 27.9971C36.4796 26.6558 35.2238 26.0848 34.0249 26.0848C31.3706 26.0848 29.9152 28.4538 29.9152 30.0808C29.9152 31.4222 31.1996 31.9931 32.3697 31.9931ZM39.8189 31.8788H41.8452L43.5002 23.8027H41.4453L40.9599 26.2002L40.1037 26.1147C38.1058 26.1147 36.2793 28.6832 36.2793 30.51C36.2793 31.2519 36.7634 31.9942 37.5922 31.9942C38.7623 31.9942 39.59 31.4232 39.9318 30.8523H40.0459L39.8189 31.8788ZM33.4822 36.1316C31.8872 37.4531 29.8385 38.0984 27.774 37.9296C25.0625 37.7583 23.1216 35.6747 22.7793 33.477H22.8933C23.5213 34.8485 25.034 36.1316 26.8893 36.3311C28.7717 36.5594 31.0277 35.7034 32.2548 34.5331L30.8849 33.477H35.0234L34.1091 37.8726L33.5096 36.1601L33.4822 36.1316Z" fill="#60340B"/>
</g>
<defs>
<clipPath id="clip0_1050_276">
<rect width="27" height="14.2686" fill="white" transform="translate(16.5 23.6875)"/>
</clipPath>
</defs>
</svg>
