<svg width="60" height="61" viewBox="0 0 60 61" fill="none" xmlns="http://www.w3.org/2000/svg">
<circle cx="30" cy="30.8223" r="30" fill="#FAE2CB"/>
<g clip-path="url(#clip0_1050_248)">
<path d="M41.16 37.705C42.3391 37.6731 43.3434 38.0334 44.184 38.8211C44.9475 39.5355 45.3648 40.4301 45.4929 41.4712C45.5353 41.8159 45.3843 42.0236 45.0832 42.1348C45.3376 44.2971 44.4343 45.8079 42.6614 46.2388C41.2542 46.5836 39.2515 45.9079 38.7018 43.6206C38.684 43.6206 38.6577 43.6146 38.6492 43.6206C38.1513 44.1799 37.7925 44.1162 37.5244 43.4164C37.4591 43.244 37.4091 43.0716 37.3684 42.9475C37.0503 42.982 36.7466 43.0432 36.4421 43.044C33.8165 43.0515 31.1909 43.0515 28.5653 43.044C28.3108 43.044 28.1887 43.069 28.1412 43.3888C27.9036 44.9677 26.5083 46.1277 24.9178 46.113C24.1489 46.1095 23.4063 45.8278 22.8233 45.3185C22.2402 44.8092 21.8548 44.1055 21.736 43.3336C21.7233 43.2474 21.7038 43.1664 21.6902 43.0958C21.4358 43.0458 21.1898 43.0251 20.9624 42.9484C20.0048 42.6269 19.467 41.6901 19.5493 40.5422C19.6079 39.7583 19.8011 38.9909 20.1201 38.2747C20.4348 37.5602 20.7987 36.869 21.1592 36.1753C21.1879 36.1239 21.2275 36.0797 21.275 36.0457C21.3225 36.0117 21.3768 35.9889 21.4341 35.9788C23.9322 35.9693 26.4311 35.9719 28.9292 35.9736C28.9499 35.9769 28.9699 35.9836 28.9885 35.9934C28.8248 37.5387 29.0556 38.4065 29.7842 38.8978C29.813 38.4574 29.8427 38.036 29.869 37.6102C29.9708 35.8722 30.0726 34.1336 30.1744 32.3944C30.2049 31.8773 30.0556 31.6963 29.5433 31.6403C28.7756 31.5541 28.008 31.4731 27.2412 31.3818C27.0296 31.3607 26.8248 31.2944 26.6403 31.1871C26.4558 31.0798 26.2958 30.9341 26.1707 30.7595C26.0456 30.5848 25.9583 30.3853 25.9146 30.1739C25.8709 29.9625 25.8717 29.7442 25.917 29.5331C26.3892 27.1982 26.8679 24.8643 27.3531 22.5316C27.5677 21.4975 28.4262 20.883 29.4254 21.0045C30.3262 21.1131 30.9997 21.9344 31.0218 22.9229C31.0322 23.0765 31.0918 23.2224 31.1914 23.3383C32.0762 24.338 33.24 24.8672 34.4504 25.3205C35.024 25.5425 35.6352 25.6465 36.2487 25.6265C37.0732 25.5963 37.8994 25.6161 38.7256 25.6204C39.7596 25.6265 40.3652 26.2392 40.3712 27.2821C40.3712 27.6044 40.3788 27.9276 40.3661 28.2499C40.3543 28.636 40.1975 29.0029 39.928 29.2753C39.6584 29.5477 39.2965 29.7051 38.9164 29.715C38.5771 29.7262 38.2438 29.715 37.8629 29.715C38.1055 31.5378 38.4914 33.2218 40.0276 34.3827C41.0133 35.1281 41.3967 36.1494 41.205 37.3879C41.188 37.4818 41.177 37.5766 41.16 37.705ZM34.7821 28.1525C33.1433 27.9636 31.5886 27.3155 30.2915 26.2806C30.1668 26.8261 30.0463 27.3234 29.9394 27.8233C29.8546 28.237 29.9496 28.4136 30.3432 28.5653C31.0648 28.8423 31.7869 29.1172 32.5096 29.3901C33.4232 29.7348 33.7752 30.2571 33.6785 31.2353C33.469 33.3631 33.2366 35.4884 33.0152 37.6128C32.9524 38.2161 32.893 38.8194 32.832 39.4373H34.7829L34.7821 28.1525ZM41.9073 45.2633C43.5368 45.2702 44.6361 43.5663 43.9728 42.0685C43.9397 41.9725 43.8794 41.8887 43.7996 41.8274C43.7198 41.7661 43.624 41.73 43.5241 41.7237C42.2678 41.5944 41.0837 41.8099 39.9835 42.4589C39.8843 42.5095 39.8019 42.5885 39.7466 42.6863C39.6913 42.784 39.6654 42.8962 39.6722 43.0087C39.6819 43.6063 39.9209 44.1763 40.3382 44.5975C40.7556 45.0186 41.3183 45.2575 41.9065 45.2633H41.9073ZM22.7616 43.0682C22.7505 44.1722 23.849 45.1366 25.0459 45.0849C26.1622 45.0383 27.2038 44.0334 27.1199 43.0682H22.7616Z" fill="#60340B"/>
<path d="M19.5878 22.5486C20.7307 22.5486 21.8735 22.5486 23.0164 22.5486C24.0343 22.5486 24.6645 23.1889 24.6654 24.2153C24.6654 26.0321 24.6654 27.8488 24.6654 29.6655C24.6654 30.6756 24.0309 31.322 23.041 31.3228C20.7338 31.3228 18.4265 31.3228 16.1193 31.3228C15.1481 31.3228 14.5076 30.6722 14.5025 29.6905C14.4992 27.852 14.4992 26.0134 14.5025 24.1748C14.5025 23.2096 15.1481 22.5537 16.0956 22.5494C17.2593 22.5442 18.4231 22.5486 19.5878 22.5486Z" fill="#60340B"/>
<path d="M29.2184 34.9375H27.7458C25.5769 34.9375 23.4071 34.9375 21.2381 34.9426C21.145 34.9504 21.0516 34.9335 20.9668 34.8936C20.8821 34.8538 20.809 34.7923 20.7546 34.7151C20.3573 34.2065 20.1271 33.584 20.0964 32.9354C20.0752 32.4925 20.2601 32.2891 20.6901 32.2891C23.3355 32.2891 25.9812 32.2891 28.6272 32.2891C28.9894 32.2891 29.204 32.4502 29.2133 32.7794C29.232 33.4827 29.2184 34.1903 29.2184 34.9375Z" fill="#60340B"/>
<path d="M28.2246 17.8899C28.2298 17.2048 28.5024 16.5498 28.9825 16.0687C29.4627 15.5877 30.1111 15.3199 30.7855 15.3243C31.1197 15.3271 31.45 15.3968 31.7577 15.5293C32.0654 15.6618 32.3444 15.8547 32.5787 16.0968C32.813 16.3388 32.9981 16.6255 33.1234 16.9402C33.2487 17.255 33.3118 17.5918 33.309 17.9313C33.3003 18.6112 33.0284 19.2602 32.5521 19.7378C32.0758 20.2155 31.4335 20.4832 30.7643 20.4832C30.4299 20.4825 30.0989 20.4149 29.7902 20.2841C29.4816 20.1534 29.2013 19.9622 28.9655 19.7213C28.7296 19.4805 28.5428 19.1948 28.4156 18.8805C28.2885 18.5663 28.2236 18.2297 28.2246 17.8899Z" fill="#60340B"/>
</g>
<defs>
<clipPath id="clip0_1050_248">
<rect width="31" height="31" fill="white" transform="translate(14.5 15.3223)"/>
</clipPath>
</defs>
</svg>
