<svg width="96" height="95" viewBox="0 0 96 95" fill="none" xmlns="http://www.w3.org/2000/svg">
<circle cx="47.7188" cy="47.5195" r="47.4141" fill="#1D0605" fill-opacity="0.2"/>
<g clip-path="url(#clip0_1050_238)">
<path d="M60.9202 20.0195C61.621 20.2821 62.3781 20.45 63.0124 20.8244C64.69 21.8144 65.593 23.3223 65.7014 25.2736C65.7101 25.4343 65.7159 25.595 65.7159 25.7571C65.7159 40.2582 65.7144 54.7579 65.7188 69.259C65.7188 71.4685 64.8114 73.1601 62.8968 74.2964C61.975 74.8431 60.9578 75.021 59.8914 75.021C51.7768 75.0138 43.6622 75.0195 35.549 75.0124C35.1011 75.0124 34.6473 74.9808 34.2052 74.9047C31.8009 74.4958 29.8719 72.3236 29.7462 69.9017C29.7332 69.6521 29.726 69.401 29.726 69.1499C29.7231 54.722 29.7289 40.2927 29.7188 25.8633C29.7173 23.4027 30.7605 21.5992 32.9958 20.5174C33.4726 20.2864 34.0101 20.1817 34.5202 20.0195C43.3197 20.0195 52.1192 20.0195 60.9202 20.0195ZM60.1284 58.4782V25.539H35.2961V58.4796H60.1269L60.1284 58.4782ZM47.7238 69.5574V69.5187C48.2295 69.5187 48.7353 69.5402 49.2395 69.5144C50.8549 69.4326 51.8722 68.3579 51.862 66.7668C51.8534 65.2589 50.7162 64.0809 49.1803 64.035C48.1905 64.0049 47.1964 64.0006 46.2067 64.0408C44.9207 64.0938 43.6867 65.3077 43.5885 66.5573C43.4787 67.9533 44.3861 69.1844 45.7876 69.4355C46.4191 69.5488 47.0779 69.5201 47.7238 69.5574Z" fill="#FAE2CB"/>
</g>
<defs>
<clipPath id="clip0_1050_238">
<rect width="36" height="55" fill="white" transform="translate(29.7188 20.0195)"/>
</clipPath>
</defs>
</svg>
