<svg width="60" height="61" viewBox="0 0 60 61" fill="none" xmlns="http://www.w3.org/2000/svg">
<circle cx="30" cy="30.8223" r="30" fill="#FAE2CB"/>
<g clip-path="url(#clip0_1050_285)">
<path d="M29.3572 15.8223H31.1737C31.5394 15.8675 31.9076 15.9043 32.2722 15.9581C36.2049 16.5419 39.4404 18.3667 41.8966 21.4962C44.2942 24.5523 45.2911 28.0514 44.9266 31.9164C44.6783 34.549 43.7596 36.9515 42.1658 39.0639C39.3609 42.7833 35.6104 44.7966 30.9633 45.0647C28.3602 45.2152 25.882 44.6608 23.5529 43.4736C23.3743 43.3831 23.2202 43.3671 23.0269 43.4296C20.5853 44.2129 18.1413 44.9839 15.7009 45.7696C15.4159 45.8614 15.1908 45.8467 15 45.6069V45.3131C15.0379 45.225 15.0832 45.1393 15.1138 45.0488C15.8905 42.7601 16.6636 40.4702 17.4477 38.184C17.5272 37.9527 17.5174 37.7691 17.3939 37.5537C16.4703 35.943 15.9015 34.2075 15.6606 32.3717C15.3266 29.8138 15.6018 27.3146 16.6318 24.9439C18.7566 20.0582 22.4618 17.1025 27.6838 16.0585C28.2355 15.9483 28.7994 15.8994 29.3572 15.8223ZM19.6177 41.3024C19.7511 41.2657 19.833 41.2461 19.9138 41.2204C21.0294 40.8667 22.1462 40.5191 23.2569 40.1544C23.548 40.059 23.7865 40.0737 24.0544 40.2438C25.5089 41.1678 27.0966 41.7284 28.8067 41.9438C30.9193 42.2106 32.956 41.9168 34.9046 41.076C36.8838 40.223 38.5107 38.9122 39.7694 37.1571C40.9792 35.4706 41.696 33.5907 41.8869 31.526C42.1266 28.9203 41.5407 26.4983 40.1315 24.294C38.5242 21.7802 36.2648 20.1206 33.3976 19.3042C31.219 18.6837 29.0367 18.7192 26.8752 19.3777C24.7639 20.0202 22.967 21.1707 21.504 22.8303C19.8453 24.7126 18.8752 26.9083 18.6514 29.4026C18.4031 32.1759 19.0758 34.7302 20.6758 37.0213C20.8691 37.2979 20.9034 37.5512 20.792 37.867C20.3969 38.9881 20.0214 40.1165 19.619 41.3012L19.6177 41.3024Z" fill="#60340B"/>
<path d="M34.2885 37.4854C33.4445 37.483 32.631 37.2455 31.8176 36.9995C28.5601 36.0155 26.2555 33.8333 24.3656 31.1138C23.7026 30.1592 23.1265 29.1666 22.9491 28.0003C22.7742 26.8449 22.9589 25.7495 23.6084 24.7508C24.0378 24.0887 24.6836 23.8182 25.4176 23.6909C25.6378 23.653 25.8616 23.6273 26.0843 23.6004C26.5418 23.5441 26.9161 23.713 27.102 24.1254C27.5619 25.1474 27.9962 26.1803 28.417 27.2194C28.5968 27.6625 28.3497 28.0419 28.1112 28.387C27.9008 28.6905 27.6341 28.9549 27.4115 29.2498C27.3589 29.3196 27.3332 29.4812 27.376 29.5424C28.5589 31.2203 29.9827 32.6204 31.8995 33.4527C32.1075 33.5433 32.2286 33.5151 32.3656 33.3352C32.6604 32.9472 32.9797 32.5764 33.2843 32.1957C33.6965 31.6805 34.0268 31.5924 34.6384 31.8641C35.1729 32.1015 35.7026 32.3487 36.231 32.6009C36.6445 32.7979 37.0506 33.0109 37.4616 33.2116C37.7846 33.3695 37.924 33.6228 37.9399 33.9826C38.0439 36.1991 36.2335 37.3153 34.6824 37.4621C34.5564 37.4744 34.4292 37.4781 34.2873 37.4866L34.2885 37.4854Z" fill="#60340B"/>
</g>
<defs>
<clipPath id="clip0_1050_285">
<rect width="30" height="30" fill="white" transform="translate(15 15.8223)"/>
</clipPath>
</defs>
</svg>
