<svg width="22" height="22" viewBox="0 0 22 22" fill="none" xmlns="http://www.w3.org/2000/svg">
<path d="M18.5052 3.48857C16.5011 1.51982 13.8321 0.437012 10.9956 0.437012C5.14104 0.437012 0.377013 5.10576 0.377013 10.8433C0.377013 12.6761 0.864896 14.4667 1.79283 16.0464L0.286133 21.437L5.91592 19.9886C7.46566 20.8183 9.21152 21.2542 10.9909 21.2542H10.9956C16.8454 21.2542 21.7147 16.5854 21.7147 10.8479C21.7147 8.06826 20.5093 5.45732 18.5052 3.48857ZM10.9956 19.5011C9.40763 19.5011 7.8531 19.0839 6.49946 18.2964L6.17899 18.1089L2.84034 18.9667L3.73001 15.7745L3.51955 15.4464C2.63467 14.0683 2.1707 12.4792 2.1707 10.8433C2.1707 6.07607 6.13116 2.19482 11.0004 2.19482C13.3585 2.19482 15.5731 3.09482 17.2377 4.73076C18.9022 6.3667 19.9258 8.53701 19.921 10.8479C19.921 15.6198 15.8601 19.5011 10.9956 19.5011ZM15.8362 13.0229C15.5731 12.8917 14.2673 12.2636 14.0234 12.1792C13.7794 12.0901 13.6025 12.0479 13.4255 12.3104C13.2485 12.5729 12.7415 13.1542 12.5836 13.3323C12.4306 13.5058 12.2727 13.5292 12.0097 13.3979C10.4504 12.6339 9.42676 12.0339 8.39838 10.3042C8.12574 9.84482 8.67102 9.87764 9.17803 8.88389C9.26413 8.71045 9.22108 8.56045 9.15412 8.4292C9.08715 8.29795 8.55622 7.01826 8.3362 6.49795C8.12095 5.9917 7.90093 6.06201 7.7383 6.05264C7.58524 6.04326 7.40826 6.04326 7.23129 6.04326C7.05431 6.04326 6.76732 6.10889 6.52338 6.3667C6.27944 6.6292 5.59544 7.25732 5.59544 8.53701C5.59544 9.8167 6.54729 11.0542 6.67644 11.2276C6.81037 11.4011 8.54666 14.0261 11.2109 15.1558C12.8946 15.8683 13.5546 15.9292 14.3965 15.8073C14.9083 15.7323 15.9653 15.1792 16.1854 14.5698C16.4054 13.9604 16.4054 13.4401 16.3384 13.3323C16.2762 13.2151 16.0993 13.1495 15.8362 13.0229Z" fill="#34201F"/>
</svg>
